# xmcd
#
# Track frame offsets: 
#        150
#        11092
#        22910
#        40992
#        57964
#        80020
#        90860
#        104490
#        117927
#        131810
#
# Disc length: 1940 seconds
#
# Revision: 0
# Processed by: cddbd v1.5.2PL0 Copyright (c) Steve Scherf et al.
# Submitted via: ExactAudioCopy v0.95b4
#
DISCID=7a07920a
DTITLE=The Cathedrals - The Cathedrals  Essential #1 Hits
DYEAR=1984
DGENRE=Gospel
TTITLE0=Blood Washed Band
TTITLE1=Can He, Could He, Would He
TTITLE2=Champion Of Love
TTITLE3=Somebody Touched Me
TTITLE4=Boundless Love
TTITLE5=An Old Convention Song
TTITLE6=This Ole House
TTITLE7=Movin'Up To Gloryland
TTITLE8=Who Can Do Anything
TTITLE9=You Can Walk On The Water
EXTD=
EXTT0=
EXTT1=
EXTT2=
EXTT3=
EXTT4=
EXTT5=
EXTT6=
EXTT7=
EXTT8=
EXTT9=
PLAYORDER=
